<mxfile host="app.diagrams.net" agent="Mozilla/5.0 (Windows NT 10.0; Win64; x64) AppleWebKit/537.36 (KHTML, like Gecko) Chrome/136.0.0.0 Safari/537.36" version="27.1.1">
  <diagram name="Página-1" id="a7QATGb1Aq99eUprFeCB">
    <mxGraphModel grid="1" page="1" gridSize="10" guides="1" tooltips="1" connect="1" arrows="1" fold="1" pageScale="1" pageWidth="827" pageHeight="1169" math="0" shadow="0">
      <root>
        <mxCell id="0" />
        <mxCell id="1" parent="0" />
        <mxCell id="9o5y2X_FjfwNCjoQFTyD-5" value="REALCE DE BORDES Y ESTRUCTURAS" style="rounded=1;whiteSpace=wrap;html=1;verticalAlign=top;" vertex="1" parent="1">
          <mxGeometry x="540" y="135" width="340" height="110" as="geometry" />
        </mxCell>
        <mxCell id="9o5y2X_FjfwNCjoQFTyD-8" value="SEGMENTACIÓN" style="rounded=1;whiteSpace=wrap;html=1;verticalAlign=top;" vertex="1" parent="1">
          <mxGeometry x="920" y="135" width="170" height="110" as="geometry" />
        </mxCell>
        <mxCell id="9o5y2X_FjfwNCjoQFTyD-11" value="POSTPROCESAMIENTO" style="rounded=1;whiteSpace=wrap;html=1;verticalAlign=top;" vertex="1" parent="1">
          <mxGeometry x="1120" y="135" width="170" height="110" as="geometry" />
        </mxCell>
        <mxCell id="9o5y2X_FjfwNCjoQFTyD-4" value="PREPROCESAMIENTO INICIAL" style="rounded=1;whiteSpace=wrap;html=1;verticalAlign=top;" vertex="1" parent="1">
          <mxGeometry x="160" y="135" width="340" height="110" as="geometry" />
        </mxCell>
        <mxCell id="9o5y2X_FjfwNCjoQFTyD-14" style="edgeStyle=orthogonalEdgeStyle;rounded=0;orthogonalLoop=1;jettySize=auto;html=1;entryX=0;entryY=0.5;entryDx=0;entryDy=0;" edge="1" parent="1" source="9o5y2X_FjfwNCjoQFTyD-1" target="9o5y2X_FjfwNCjoQFTyD-2">
          <mxGeometry relative="1" as="geometry" />
        </mxCell>
        <mxCell id="9o5y2X_FjfwNCjoQFTyD-1" value="IMAGEN" style="ellipse;whiteSpace=wrap;html=1;" vertex="1" parent="1">
          <mxGeometry x="10" y="150" width="120" height="80" as="geometry" />
        </mxCell>
        <mxCell id="9o5y2X_FjfwNCjoQFTyD-15" style="edgeStyle=orthogonalEdgeStyle;rounded=0;orthogonalLoop=1;jettySize=auto;html=1;entryX=0;entryY=0.5;entryDx=0;entryDy=0;" edge="1" parent="1" source="9o5y2X_FjfwNCjoQFTyD-2" target="9o5y2X_FjfwNCjoQFTyD-3">
          <mxGeometry relative="1" as="geometry" />
        </mxCell>
        <mxCell id="9o5y2X_FjfwNCjoQFTyD-2" value="Conversión a escala de grises" style="rounded=0;whiteSpace=wrap;html=1;" vertex="1" parent="1">
          <mxGeometry x="200" y="160" width="120" height="60" as="geometry" />
        </mxCell>
        <mxCell id="9o5y2X_FjfwNCjoQFTyD-16" style="edgeStyle=orthogonalEdgeStyle;rounded=0;orthogonalLoop=1;jettySize=auto;html=1;" edge="1" parent="1" source="9o5y2X_FjfwNCjoQFTyD-3" target="9o5y2X_FjfwNCjoQFTyD-6">
          <mxGeometry relative="1" as="geometry" />
        </mxCell>
        <mxCell id="9o5y2X_FjfwNCjoQFTyD-3" value="&lt;strong data-end=&quot;503&quot; data-start=&quot;470&quot;&gt;Corrección de contraste local&lt;/strong&gt; (CLAHE)" style="rounded=0;whiteSpace=wrap;html=1;" vertex="1" parent="1">
          <mxGeometry x="360" y="160" width="120" height="60" as="geometry" />
        </mxCell>
        <mxCell id="9o5y2X_FjfwNCjoQFTyD-17" style="edgeStyle=orthogonalEdgeStyle;rounded=0;orthogonalLoop=1;jettySize=auto;html=1;entryX=0;entryY=0.5;entryDx=0;entryDy=0;" edge="1" parent="1" source="9o5y2X_FjfwNCjoQFTyD-6" target="9o5y2X_FjfwNCjoQFTyD-7">
          <mxGeometry relative="1" as="geometry" />
        </mxCell>
        <mxCell id="9o5y2X_FjfwNCjoQFTyD-6" value="Filtro Laplaciano o Laplacian of Gaussian (LoG)" style="rounded=0;whiteSpace=wrap;html=1;" vertex="1" parent="1">
          <mxGeometry x="570" y="160" width="120" height="60" as="geometry" />
        </mxCell>
        <mxCell id="9o5y2X_FjfwNCjoQFTyD-18" style="edgeStyle=orthogonalEdgeStyle;rounded=0;orthogonalLoop=1;jettySize=auto;html=1;entryX=0;entryY=0.5;entryDx=0;entryDy=0;" edge="1" parent="1" source="9o5y2X_FjfwNCjoQFTyD-7" target="9o5y2X_FjfwNCjoQFTyD-9">
          <mxGeometry relative="1" as="geometry" />
        </mxCell>
        <mxCell id="9o5y2X_FjfwNCjoQFTyD-7" value="&lt;strong data-end=&quot;1103&quot; data-start=&quot;1094&quot;&gt;Sobel&lt;/strong&gt; (complementario a LoG)" style="rounded=0;whiteSpace=wrap;html=1;" vertex="1" parent="1">
          <mxGeometry x="730" y="160" width="120" height="60" as="geometry" />
        </mxCell>
        <mxCell id="9o5y2X_FjfwNCjoQFTyD-19" style="edgeStyle=orthogonalEdgeStyle;rounded=0;orthogonalLoop=1;jettySize=auto;html=1;" edge="1" parent="1" source="9o5y2X_FjfwNCjoQFTyD-9" target="9o5y2X_FjfwNCjoQFTyD-12">
          <mxGeometry relative="1" as="geometry">
            <mxPoint x="1110" y="190" as="targetPoint" />
          </mxGeometry>
        </mxCell>
        <mxCell id="9o5y2X_FjfwNCjoQFTyD-9" value="&lt;strong data-end=&quot;1323&quot; data-start=&quot;1302&quot;&gt;Umbral adaptativo&lt;/strong&gt; (Adaptive Thresholding)" style="rounded=0;whiteSpace=wrap;html=1;" vertex="1" parent="1">
          <mxGeometry x="950" y="160" width="120" height="60" as="geometry" />
        </mxCell>
        <mxCell id="9o5y2X_FjfwNCjoQFTyD-12" value="&lt;strong data-end=&quot;2204&quot; data-start=&quot;2179&quot;&gt;Morfología matemática&lt;/strong&gt; (erosión, dilatación)" style="rounded=0;whiteSpace=wrap;html=1;" vertex="1" parent="1">
          <mxGeometry x="1150" y="160" width="120" height="60" as="geometry" />
        </mxCell>
        <mxCell id="9o5y2X_FjfwNCjoQFTyD-22" style="edgeStyle=orthogonalEdgeStyle;rounded=0;orthogonalLoop=1;jettySize=auto;html=1;entryX=1;entryY=0.5;entryDx=0;entryDy=0;startArrow=classic;startFill=0;endArrow=none;" edge="1" parent="1" source="9o5y2X_FjfwNCjoQFTyD-21" target="9o5y2X_FjfwNCjoQFTyD-12">
          <mxGeometry relative="1" as="geometry" />
        </mxCell>
        <mxCell id="9o5y2X_FjfwNCjoQFTyD-21" value="SALIDA" style="ellipse;whiteSpace=wrap;html=1;" vertex="1" parent="1">
          <mxGeometry x="1320" y="150" width="120" height="80" as="geometry" />
        </mxCell>
      </root>
    </mxGraphModel>
  </diagram>
</mxfile>
